<?xml version="1.0" encoding="utf-8"?>
<!-- Generator: Adobe Illustrator 19.2.0, SVG Export Plug-In . SVG Version: 6.00 Build 0)  -->
<svg version="1.1" id="Layer_2" xmlns="http://www.w3.org/2000/svg" xmlns:xlink="http://www.w3.org/1999/xlink" x="0px" y="0px"
	 viewBox="0 0 24 24" style="enable-background:new 0 0 24 24;" xml:space="preserve">
<style type="text/css">
	.st0{fill:none;}
</style>
<rect class="st0" width="24" height="24"/>
<path d="M21,3.5h-2v-2h-2v5h-2v-3H9v-2H7v5H5v-3H3c-1.1,0-2,0.9-2,2v15c0,1.1,0.9,2,2,2h18c1.1,0,2-0.9,2-2v-15
	C23,4.4,22.1,3.5,21,3.5z M8,19.5H4v-4h4V19.5z M8,13.5H4v-4h4V13.5z M14,19.5h-4v-4h4V19.5z M14,13.5h-4v-4h4V13.5z M20,13.5h-4v-4
	h4V13.5z"/>
</svg>
